<?xml version="1.0" encoding="UTF-8"?> <!-- Generator: Adobe Illustrator 25.2.0, SVG Export Plug-In . SVG Version: 6.00 Build 0) --> <svg xmlns="http://www.w3.org/2000/svg" xmlns:xlink="http://www.w3.org/1999/xlink" version="1.1" id="Layer_1" x="0px" y="0px" viewBox="0 0 2198 368.3" style="enable-background:new 0 0 2198 368.3;" xml:space="preserve"> <style type="text/css"> .st0{fill:#4C4C4C;} .st1{fill:#F37820;} .st2{fill:#4E4D4D;} .st3{fill:#F37920;} </style> <g> <g> <path class="st0" d="M302.8,136c-32-15.3-64-30.5-95.9-45.9c-4-1.9-7.4-2-11.3,0c-20.2,9.9-40.4,19.6-60.7,29.3 c-12.9,6.2-25.7,12.3-39.6,19c2.1,1.2,3.1,1.9,4.3,2.5c31.8,15.3,63.6,30.6,95.3,46c4.5,2.2,8.2,2.1,12.6,0 c26.6-12.9,53.4-25.6,80.1-38.4c6.4-3.1,12.7-6.2,20-9.7C305.4,137.3,304.1,136.6,302.8,136z"></path> <path class="st1" d="M314.5,221.8c-0.1-22.7,0.1-45.3,0.1-68c0-0.9-0.3-1.9-0.6-3.3c-1.7,0.7-3,1.2-4.3,1.8 c-32.2,15.5-64.5,31.1-96.8,46.5c-3.7,1.8-5.1,3.8-5,8c0.2,22.5,0.1,45,0.1,67.5c0,1.4,0.2,2.8,0.3,4.7c1.6-0.6,2.7-0.9,3.7-1.4 c32.3-15.4,64.5-30.9,96.9-46.3C313,229.3,314.5,226.3,314.5,221.8z"></path> <path class="st1" d="M88.2,150.5c8.1,3.9,15,7.1,21.9,10.4c26.7,12.8,53.4,25.6,80.2,38.4c2.6,1.3,4.3,2.6,4.2,5.9 c-0.1,23.7,0,47.3,0,71c0,0.8-0.3,1.5-0.5,3c-10.7-5.1-21.1-10-31.4-15c-22.5-10.8-44.9-21.8-67.5-32.5c-5.1-2.4-7-5.7-7-11.3 c0.2-21,0.1-42,0.1-63C88.2,155.6,88.2,153.8,88.2,150.5z"></path> </g> <g> <path class="st2" d="M622.2,132.4h-70.5v148.5h-48.6V132.4h-70.5V88.6h189.6V132.4z"></path> <path class="st2" d="M704.4,181.3c-18,0-32.7,9.9-32.7,37.5v62.1h-46.5V144.7h44.4v22.5c5.4-17.4,21-27.3,39.9-27.3 c8.7,0,17.4,1.8,21.9,4.8l-7.5,40.2C718.5,182.8,711.6,181.3,704.4,181.3z"></path> <path class="st2" d="M783.9,202.9l31.5-3.6c7.5-0.9,11.4-4.5,11.4-10.8c0-8.4-7.2-13.8-18.6-13.8c-14.1,0-23.1,8.1-23.1,20.7 l-42.9-9.3c2.4-28.2,29.1-46.2,69-46.2s62.7,17.7,62.7,48.6v51.9c0,4.8,3,7.5,7.2,7.5c2.4,0,4.5-0.3,6-0.9v33 c-6.9,3.3-17.4,4.8-25.5,4.8c-15.9,0-27.9-8.1-30-20.4l-0.3-1.8c-6.3,13.8-23.1,22.2-44.1,22.2c-28.8,0-47.1-15.9-47.1-40.5 C740.1,220.9,756,206.2,783.9,202.9z M803.4,250.3c14.1,0,24-9,24-21.3v-5.1l-27,3.3c-7.5,0.9-12.3,5.7-12.3,12 C788.1,246.1,793.8,250.3,803.4,250.3z"></path> <path class="st2" d="M972.9,284.8c-44.4,0-74.4-28.8-74.4-72.3c0-43.8,30-72.6,74.4-72.6c38.4,0,66.6,22.2,67.8,55.5l-42.9,9.3 c-1.5-15.3-11.4-23.7-25.5-23.7c-15.9,0-26.4,12.6-26.4,31.8c0,18.6,10.5,31.2,26.4,31.2c15,0,24.9-9.3,26.1-21.9l45.3,8.1 C1040.1,262.9,1012.5,284.8,972.9,284.8z"></path> <path class="st2" d="M1130.7,139.9c40.5,0,69.6,27,69.6,66.9c0,7.2-0.9,14.4-1.8,18.3h-93.9c0.6,13.2,11.1,22.2,28.2,22.2 c13.2,0,22.5-5.1,27.6-13.5l32.4,21c-10.5,18.9-33.6,30-60,30c-45,0-74.1-29.4-74.1-72.6C1058.7,169,1087.5,139.9,1130.7,139.9z M1128.9,176.5c-13.5,0-23.1,8.4-23.7,20.7h47.4C1152,184.9,1142.4,176.5,1128.9,176.5z"></path> <path class="st3" d="M1407.6,153.4c0,39.3-25.2,65.4-69.9,65.4h-57.6v62.1h-48.6V88.6h107.1C1380,88.6,1407.6,112,1407.6,153.4z M1356.3,154c0-14.1-7.5-23.4-26.7-23.4h-49.5v46.8h49.5C1345.5,177.4,1356.3,170.8,1356.3,154z"></path> <path class="st3" d="M1478.4,165.1c5.4-15,22.5-25.2,41.7-25.2c30.6,0,48,21.3,48,53.1v87.9h-46.5v-73.5 c0-17.1-6.6-25.5-19.8-25.5c-14.4,0-23.7,9.9-23.7,24.6v74.4h-46.2V75.1h46.5V165.1z"></path> <path class="st3" d="M1638.3,202.9l31.5-3.6c7.5-0.9,11.4-4.5,11.4-10.8c0-8.4-7.2-13.8-18.6-13.8c-14.1,0-23.1,8.1-23.1,20.7 l-42.9-9.3c2.4-28.2,29.1-46.2,69-46.2s62.7,17.7,62.7,48.6v51.9c0,4.8,3,7.5,7.2,7.5c2.4,0,4.5-0.3,6-0.9v33 c-6.9,3.3-17.4,4.8-25.5,4.8c-15.9,0-27.9-8.1-30-20.4l-0.3-1.8c-6.3,13.8-23.1,22.2-44.1,22.2c-28.8,0-47.1-15.9-47.1-40.5 C1594.5,220.9,1610.4,206.2,1638.3,202.9z M1657.8,250.3c14.1,0,24-9,24-21.3v-5.1l-27,3.3c-7.5,0.9-12.3,5.7-12.3,12 C1642.5,246.1,1648.2,250.3,1657.8,250.3z"></path> <path class="st3" d="M1845.6,181.3c-18,0-32.7,9.9-32.7,37.5v62.1h-46.5V144.7h44.4v22.5c5.4-17.4,21-27.3,39.9-27.3 c8.7,0,17.4,1.8,21.9,4.8l-7.5,40.2C1859.7,182.8,1852.8,181.3,1845.6,181.3z"></path> <path class="st3" d="M1940.4,165.4c5.4-15.3,21.6-25.5,40.2-25.5c22.5,0,37.5,12.3,43.5,31.8c4.8-19.2,22.2-31.8,43.5-31.8 c29.7,0,46.5,21.3,46.5,53.1v87.9h-46.5v-73.5c0-17.1-6-25.5-18.3-25.5c-13.5,0-22.2,9.9-22.2,24.6v74.4h-46.5v-73.5 c0-17.1-6-25.5-18.3-25.5c-13.2,0-21.9,9.6-22.2,24v75h-46.2V144.7h46.5V165.4z"></path> </g> <g> <path class="st0" d="M2141.7,0c6.2,0,12.2,1.6,18.1,4.8c5.9,3.2,10.5,7.7,13.8,13.6c3.3,5.9,4.9,12.1,4.9,18.5 c0,6.3-1.6,12.5-4.9,18.3c-3.2,5.9-7.8,10.4-13.6,13.6c-5.8,3.2-12,4.9-18.3,4.9c-6.4,0-12.5-1.6-18.3-4.9 c-5.8-3.2-10.4-7.8-13.6-13.6c-3.3-5.9-4.9-12-4.9-18.3c0-6.4,1.7-12.6,5-18.5c3.3-5.9,7.9-10.4,13.8-13.6 C2129.4,1.6,2135.5,0,2141.7,0z M2141.7,6.1c-5.2,0-10.2,1.3-15.1,4c-4.9,2.7-8.7,6.4-11.5,11.4c-2.8,4.9-4.2,10.1-4.2,15.4 c0,5.3,1.4,10.4,4.1,15.3c2.7,4.9,6.5,8.7,11.4,11.4c4.9,2.7,10,4.1,15.3,4.1c5.3,0,10.4-1.4,15.3-4.1c4.9-2.7,8.7-6.5,11.4-11.4 c2.7-4.9,4.1-10,4.1-15.3c0-5.3-1.4-10.5-4.1-15.4c-2.8-4.9-6.6-8.7-11.5-11.4C2151.8,7.4,2146.8,6.1,2141.7,6.1z M2125.5,57.2 V17.6h13.6c4.7,0,8,0.4,10.1,1.1c2.1,0.7,3.7,2,5,3.8c1.2,1.8,1.9,3.8,1.9,5.8c0,2.9-1,5.4-3.1,7.6c-2.1,2.1-4.8,3.4-8.2,3.6 c1.4,0.6,2.5,1.3,3.4,2.1c1.6,1.6,3.5,4.2,5.9,7.9l4.8,7.8h-7.8l-3.5-6.2c-2.8-4.9-5-8-6.7-9.2c-1.2-0.9-2.9-1.4-5.1-1.4h-3.8 v16.8H2125.5z M2131.9,34.9h7.8c3.7,0,6.2-0.6,7.6-1.7c1.4-1.1,2-2.6,2-4.4c0-1.2-0.3-2.2-1-3.1c-0.7-0.9-1.6-1.6-2.7-2.1 c-1.2-0.5-3.3-0.7-6.4-0.7h-7.3V34.9z"></path> </g> <path class="st1" d="M356.4,262c0.2-1.2,0.2-2.4,0.2-3.5c0-28,0-56.5,0-84l0-22.5c0-0.5,0-1,0-1.3c0-0.8,0-1.5,0-2.5 c0.1-2.5,1.4-5.1,3.9-5.2c2.5,0,4.3,2.2,4.4,5.2c0.1,6.3,0.1,12.1,0.1,18.3c0,2.5,0,5.1,0,7.7l0,33.5l0,0c0,5.4,0,10.7,0,16.1 c0,13.9,0,28.3,0.1,42.4c0,0.8,0,1.6-0.2,2.2L356.4,262z"></path> <path class="st0" d="M241.5,329.8c-1,0-2.1-0.3-2.9-2.1c-1.5-3.4,0.3-4.8,1.8-5.5c6.3-3.2,12.9-6.3,19.2-9.4c2-0.9,4-1.9,5.9-2.9 l17.7-8.5c22.2-10.7,45.2-21.8,67.8-32.6c1-0.5,1.8-1,2.5-1.6l7.9,6c-0.5,0.3-1.1,0.6-1.7,0.9c-27.4,13-55.3,26.4-82.2,39.3 c-9.7,4.6-19.4,9.3-29.1,13.9l-1,0.5c-1.3,0.6-2.5,1.2-3.7,1.6C242.9,329.7,242.2,329.8,241.5,329.8 C241.5,329.8,241.5,329.8,241.5,329.8z"></path> <path class="st1" d="M320.1,85.7c-0.7,0-1.5-0.2-2.2-0.5c-4.9-2.2-9.8-4.6-14.5-6.9c-1.9-0.9-3.8-1.8-5.7-2.8l-23.5-11.3 c-22.5-10.8-44.9-21.6-67.4-32.5c-0.8-0.4-1.7-0.7-2.5-1.1v-9c0.7,0.2,1.5,0.5,2.3,0.9c27.5,13.3,55.6,26.7,82.7,39.7 c9.2,4.4,18.4,8.8,27.6,13.2l1,0.5c1.3,0.6,2.5,1.2,3.7,1.9c2.5,1.5,3.1,3.2,2.1,5.6C323,84.9,321.7,85.7,320.1,85.7L320.1,85.7z"></path> <path class="st0" d="M82.3,85.3c-1.6,0-2.6-0.7-3.2-2.3c-0.5-1.3-1.3-3.4,3.9-5.9c8.2-4,16.4-7.9,24.6-11.8l11.4-5.5 c6.4-3.1,12.9-6.2,19.3-9.3c18.9-9.1,38.5-18.5,57.6-27.8c0.8-0.4,1.6-0.7,2.3-0.9v9c-0.1,0-0.1,0.1-0.2,0.1 c-1.4,0.6-2.7,1.2-4.1,1.8c-23.2,11.1-46.5,22.2-69.7,33.4L85.8,84.4C84.5,85,83.3,85.3,82.3,85.3z"></path> <path class="st1" d="M160.9,329.7c-1.1,0-2.4-0.4-3.8-1.1c-17.3-8.3-34.7-16.7-52-25.1c-12.9-6.3-25.9-12.5-38.9-18.8l-3.7-1.8 c-6-2.9-12.3-5.9-18.6-8.6c-4.4-1.9-5.9-4.3-5.9-9.1c0.2-13.8,0.2-27.9,0.1-41.5c0-5.3,0-10.7,0-16l0,0l0-12.7 c0-14.6,0-29.2,0-43.7l0-0.8c0-1.7,0-3.2,0.2-4.7c0.4-2,1.4-2.9,3.5-2.9l0.2,0c1.9,0.1,2.9,0.9,3.2,3c0.2,1.1,0.1,2.3,0.1,3.5l0,1 c0,8.1,0,16.3,0,24.4c0,27,0.1,55-0.1,82.5c0,6.4,2.4,10.1,8.3,12.9c31.6,14.9,63.5,30.3,94.5,45.2l12.3,5.9c2.1,1,3.4,2.2,3.9,3.5 c0.3,0.8,0.2,1.7-0.3,2.8C163.2,329.1,162.3,329.7,160.9,329.7z"></path> <path class="st1" d="M360.3,124.4c-12.6-0.2-22.8-10.6-22.7-23.1c0.1-12.9,10.2-23,23.1-23c6.3,0,12,2.3,16.1,6.5 c4.1,4.3,6.4,10.2,6.4,16.7c0,13-9.7,22.8-22.5,22.8L360.3,124.4z"></path> <path class="st1" d="M201.4,368.3c-12.7,0-23.1-10.4-23.1-23.1c0-12.2,10.5-22.4,23-22.4c12.4,0,22.8,10.2,22.8,22.2 c0,6.3-2.4,12.2-6.8,16.7C213.1,365.9,207.4,368.3,201.4,368.3C201.5,368.3,201.4,368.3,201.4,368.3z"></path> <path class="st1" d="M42.7,123.9c-13.9-0.1-23.2-9.3-23.1-23c0-12.4,9.6-22.1,21.8-22.1c13.6,0.1,23,9.4,23,22.7 c0,12.4-9.6,22.4-21.5,22.4C42.8,123.9,42.7,123.9,42.7,123.9z"></path> </g> </svg> 